<svg xmlns="http://www.w3.org/2000/svg" xmlns:xlink="http://www.w3.org/1999/xlink" width="12" height="11" viewBox="0 0 12 11"><defs><path id="a" d="M7.063 3.902c.515-.974 1.357-.978 1.875 0l4.124 7.791c.516.974.039 1.771-1.07 1.771H4.008c-1.107 0-1.59-.793-1.072-1.77zM8 10.667l-.098.007a.667.667 0 00-.569.66l.008.098A.667.667 0 008 12l.098-.007a.667.667 0 00.569-.66l-.008-.098A.667.667 0 008 10.667zm0-5.334l-.098.008A.667.667 0 007.333 6v3.333c0 .368.299.667.667.667l.098-.007a.667.667 0 00.569-.66V6A.667.667 0 008 5.333z"/></defs><g fill="none" fill-rule="evenodd" transform="translate(-2 -3)"><path d="M0 0h16v16H0z"/><mask id="b" fill="#fff"><use xlink:href="#a"/></mask><use fill="#42526E" xlink:href="#a"/><path fill="#FB9032" fill-rule="nonzero" d="M0 0h16v16H0z" mask="url(#b)"/></g></svg>