<svg xmlns="http://www.w3.org/2000/svg" viewBox="0 0 215.31 127.2"><g data-name="Layer 2"><g data-name="Layer 1"><path fill="#3ab4e5" d="M202.85 50.18l12.28-12.28.17-.17-12.46-12.46.01-.01 12.28-12.29.17-.17L202.68.17 202.5 0l-12.63 12.63-.17.17-12.28 12.29-.17.17 12.45 12.46L177.42 50l-.17.18 12.62 12.63.18.17 12.28 12.28.18.17 12.63-12.63.17-.17-12.46-12.45z"/><path style="mix-blend-mode:soft-light" fill="#97dffc" d="M197.63 55.4l12.28-12.28.17-.17-12.46-12.46 12.29-12.29.17-.17L197.45 5.4l-.17-.18-12.63 12.63-.17.18-12.29 12.29-.17.17 12.46 12.46-12.29 12.28-.17.17 12.63 12.63.17.17 12.29 12.29.17.17 12.63-12.63.17-.17-12.45-12.46z"/><path d="M117.72 22.87H0V127.2h24.3v-21.81h93.42a41.26 41.26 0 000-82.52zm17 41.26a17 17 0 01-17 17H24.3V47.17h93.42a17 17 0 0116.96 16.96z" fill="#231f6f"/></g></g></svg>