<svg width="24" height="24" viewBox="0 0 24 24" fill="none" xmlns="http://www.w3.org/2000/svg"><path d="M7 7.786V6h2.056v.857H7.703v.929H7zM7 10.643v2.714h.667v-2.714H7zM7 16.214V18h2.056v-.857h-1.39v-.929H7zM11.278 6h2.11v.857h-2.11V6zM15.611 6v.857h.722v.929H17V6h-1.389zM11.278 17.143h2.11V18h-2.11v-.857zM16.333 17.143h-.722V18H17v-1.786h-.667v.929zM16.333 10.643v2.714H17v-2.714h-.667z" fill="#57626E"/><path fill-rule="evenodd" clip-rule="evenodd" d="M15.571 16h-.798a.332.332 0 01-.224-.073.446.446 0 01-.128-.184l-.713-1.931h-3.422l-.713 1.931a.392.392 0 01-.123.179.33.33 0 01-.223.078h-.799l3.05-8h1.043l3.05 8zm-2.15-2.97l-1.198-3.255A6.89 6.89 0 0112 9.027c-.075.302-.151.553-.23.754l-1.197 3.249h2.848z" fill="#57626E"/></svg>