<svg xmlns="http://www.w3.org/2000/svg" width="48" height="48" viewBox="0 0 24 24" aria-labelledby="musicIconTitle" stroke="#000" stroke-width="1.5" stroke-linecap="square" fill="none" color="#000"><path stroke-linecap="round" d="M8 18V6l12-3v13"/><path d="M5.947 20.51c-1.468.535-2.946.175-3.302-.804-.356-.978.545-2.205 2.012-2.739 1.468-.534 2.947-.174 3.303.805.356.978-.545 2.204-2.013 2.738zm12-2c-1.468.535-2.946.175-3.302-.804-.356-.978.545-2.205 2.012-2.739 1.468-.534 2.947-.174 3.303.805.356.978-.545 2.204-2.013 2.738z"/></svg>