<svg width="16" height="18" viewBox="0 0 16 18" fill="none" xmlns="http://www.w3.org/2000/svg"><path fill-rule="evenodd" clip-rule="evenodd" d="M11.087.996a1 1 0 01.707.293l2.916 2.916a1 1 0 01.293.707V16.67c0 .184-.15.333-.334.333H1.331a.333.333 0 01-.334-.333V1.33c0-.184.15-.334.334-.334h9.756zM9.52 10.502v.681H6.506v-.58l1.425-1.53c.143-.159.256-.299.34-.42a1.71 1.71 0 00.178-.33.801.801 0 00-.01-.623.496.496 0 00-.196-.224.588.588 0 00-.315-.08.607.607 0 00-.345.098.616.616 0 00-.218.27.998.998 0 00-.072.39h-.875a1.407 1.407 0 01.718-1.244 1.6 1.6 0 01.81-.197c.31 0 .57.05.781.151.214.1.376.242.484.43.111.186.167.408.167.666 0 .145-.023.287-.07.427a1.927 1.927 0 01-.2.411 3.314 3.314 0 01-.308.412 9.44 9.44 0 01-.403.433l-.765.86H9.52zM4.947 6.767v4.416h-.872v-3.41l-1.047.332v-.687l1.825-.65h.094zm6.601 1.835h-.466v.662h.466c.15 0 .278.024.387.07a.521.521 0 01.252.218.744.744 0 01.087.387.65.65 0 01-.081.33.545.545 0 01-.23.218.777.777 0 01-.357.076.74.74 0 01-.336-.076.584.584 0 01-.234-.209.552.552 0 01-.084-.302h-.875c0 .217.042.406.127.566.087.157.202.288.345.393.145.103.307.18.484.233a2.166 2.166 0 001.168-.009 1.52 1.52 0 00.497-.254c.143-.111.254-.246.333-.406a1.24 1.24 0 00.118-.55c0-.168-.031-.32-.094-.458a.98.98 0 00-.278-.36 1.226 1.226 0 00-.381-.211 1.3 1.3 0 00.305-.194 1.15 1.15 0 00.279-.351.909.909 0 00.096-.406c0-.274-.062-.505-.187-.69a1.158 1.158 0 00-.524-.42 1.962 1.962 0 00-.784-.146c-.264 0-.506.05-.726.151a1.32 1.32 0 00-.527.42c-.129.18-.194.391-.194.633h.875c0-.108.027-.201.082-.278a.543.543 0 01.218-.179.693.693 0 01.296-.063c.136 0 .248.025.336.076a.452.452 0 01.197.205.649.649 0 01.067.3.716.716 0 01-.073.33.498.498 0 01-.215.218.796.796 0 01-.369.076z" fill="#fff" stroke="#fff" stroke-width=".001"/></svg>