<svg width="48" height="48" viewBox="0 0 24 24" xmlns="http://www.w3.org/2000/svg" aria-labelledby="verifiedIconTitle" stroke="#000" stroke-width="1.5" stroke-linecap="square" fill="none" color="#000"><path d="M8 12.5l2.5 2.5L16 9.5"/><path d="M12 22a3 3 0 0 0 2.757-1.816c.162-.377.699-.6 1.08-.447a3 3 0 0 0 3.9-3.9c-.152-.381.07-.918.447-1.08a3 3 0 0 0 0-5.514c-.377-.163-.6-.699-.447-1.08a3 3 0 0 0-3.9-3.9c-.381.152-.918-.07-1.08-.447a3 3 0 0 0-5.514 0c-.163.377-.699.6-1.08.447a3 3 0 0 0-3.9 3.9c.152.381-.07.917-.447 1.08a3 3 0 0 0 0 5.514c.377.162.6.699.447 1.08a3 3 0 0 0 3.9 3.9c.381-.152.917.07 1.08.447A3 3 0 0 0 12 22z"/></svg>