<svg width="24" height="25" fill="none" xmlns="http://www.w3.org/2000/svg"><path d="M12 17a3 3 0 1 0 0-6 3 3 0 0 0 0 6z" stroke="#1D2631" stroke-width="1.2" stroke-linecap="round" stroke-linejoin="round"/><path d="M12 5.09H9.818C9.545 5.09 9 5.31 9 6.183c0 1.09-.818 1.909-1.91 1.909H4.637C4.091 8.09 3 8.418 3 9.727v9.546c.09.636.71 1.909 2.455 1.909h14.181c.455 0 1.364-.382 1.364-1.91V11.91" stroke="#1D2631" stroke-width="1.2"/><path d="M18.546 3.727v2.728h2.727v1.09h-2.727v2.728h-1.091V7.545h-2.728v-1.09h2.728V3.727h1.09z" fill="#1D2631"/></svg>