<svg width="24" height="24" viewBox="0 0 24 24" fill="#0E0E10" xmlns="http://www.w3.org/2000/svg"><path d="M20.303 6.074a.385.385 0 01-.069-.009.572.572 0 00-.102-.012H6.693l-.213-1.42A1.906 1.906 0 004.58 3H2.853A.853.853 0 002 3.848c0 .466.384.848.853.848h1.728c.107 0 .192.085.213.19l1.323 8.948a2.334 2.334 0 002.304 1.972h8.874c1.11 0 2.07-.785 2.304-1.866l1.386-6.89a.838.838 0 00-.682-.976zM16.4 16.59a2.21 2.21 0 00-2.22 2.205A2.21 2.21 0 0016.4 21a2.21 2.21 0 002.218-2.205c-.021-1.208-1.003-2.205-2.219-2.205zm-7.638 0c1.173 0 2.155.933 2.197 2.099.064 1.209-.896 2.226-2.112 2.29h-.042a2.18 2.18 0 01-2.176-2.1c-.043-1.208.896-2.225 2.133-2.289z"/></svg>