<svg width="24" height="24" viewBox="0 0 24 24" xmlns="http://www.w3.org/2000/svg" fill="#0E0E10"><path d="M14.9 3.5h5.27c.458 0 .83.36.83.804v5.09a.817.817 0 01-.83.803c-.46 0-.834-.36-.834-.803V6.242l-7.972 7.702a.851.851 0 01-1.175 0 .792.792 0 01-.238-.674.798.798 0 01.238-.462l7.972-7.702H14.9c-.46 0-.834-.36-.834-.803 0-.443.375-.803.834-.803z"/><path d="M16.175 10.433a.853.853 0 01.593-.236c.459 0 .83.36.83.803v8.697a.817.817 0 01-.83.803H3.83a.817.817 0 01-.83-.803V7.203c0-.443.372-.803.83-.803h9.5c.458 0 .83.36.83.803a.817.817 0 01-.83.803H4.663v10.887h11.27V11a.78.78 0 01.241-.566z"/></svg>