<svg width="24" height="24" viewBox="0 0 24 24" xmlns="http://www.w3.org/2000/svg" fill="#0E0E10"><path d="M9.54 12.068a2.83 2.83 0 012.826-2.827 2.83 2.83 0 012.827 2.827 2.83 2.83 0 01-2.827 2.827 2.83 2.83 0 01-2.827-2.827z"/><path fill-rule="evenodd" clip-rule="evenodd" d="M2 12.067C3.63 7.931 7.654 5 12.365 5c4.717 0 8.736 2.93 10.366 7.067-1.63 4.137-5.65 7.068-10.366 7.068-4.711 0-8.735-2.931-10.365-7.068zm5.654 0a4.713 4.713 0 004.711 4.712 4.713 4.713 0 004.712-4.712 4.713 4.713 0 00-9.423 0z"/></svg>