<svg width="24" height="24" fill="none" xmlns="http://www.w3.org/2000/svg"><path d="M15.23 6.193c.488.254.813.76.874 1.331l.325 3.57c-2.905 1.393-5.953 1.393-8.797 0l.325-3.57c.04-.57.387-1.077.874-1.33.488-.275 1.056-.254 1.544.042a3.213 3.213 0 0 0 3.312 0 1.604 1.604 0 0 1 1.544-.043z" fill="#57626E"/><path d="M12 13.184c1.748 0 3.494-.443 5.18-1.309 2.439.613 3.82 1.605 3.82 2.767C21 16.817 16.368 18 12 18s-9-1.183-9-3.358c0-1.162 1.381-2.154 3.82-2.767 1.686.866 3.432 1.31 5.18 1.31z" fill="#57626E"/></svg>