<svg width="24" height="24" fill="none" xmlns="http://www.w3.org/2000/svg"><path d="M17 4.8H7V4h10v.8z" fill="#57626E"/><path fill-rule="evenodd" clip-rule="evenodd" d="M15.571 16h-.798a.333.333 0 0 1-.223-.073.445.445 0 0 1-.128-.184l-.713-1.931h-3.423l-.713 1.931a.392.392 0 0 1-.123.179.33.33 0 0 1-.223.078h-.798l3.05-8h1.043l3.05 8zm-2.15-2.97l-1.197-3.255A6.898 6.898 0 0 1 12 9.027a6.29 6.29 0 0 1-.229.754l-1.197 3.249h2.847z" fill="#57626E"/><path d="M7 19.2v.8h10v-.8H7z" fill="#57626E"/></svg>