<svg width="24" height="24" viewBox="0 0 24 24" xmlns="http://www.w3.org/2000/svg" fill="#0E0E10"><path fill-rule="evenodd" clip-rule="evenodd" d="M10.732 8.11c2.255-2.532 5.816-4.165 8.94-4.109a.335.335 0 01.326.326c.072 3.12-1.574 6.68-4.109 8.94a8.443 8.443 0 01-2.447 5.776.376.376 0 01-.258.107.307.307 0 01-.095-.015c-.12-.04-.219-.132-.237-.257l-.367-2.57-.356.318a.332.332 0 01-.458-.013l-4.284-4.285a.333.333 0 01-.014-.458l.318-.355-2.57-.368a.334.334 0 01-.186-.567 8.46 8.46 0 015.797-2.47zm4.69 2.134A1.669 1.669 0 0016.6 7.399a1.669 1.669 0 00-2.359 0 1.67 1.67 0 000 2.357c.325.325.752.488 1.18.488z"/><path d="M4.014 19.57c.11-.364 1.089-3.587 1.802-4.3a2.063 2.063 0 012.914 0c.803.803.803 2.11 0 2.914-.713.713-3.936 1.693-4.3 1.802a.333.333 0 01-.415-.415z"/></svg>