<svg width="24" height="24" viewBox="0 0 24 24" xmlns="http://www.w3.org/2000/svg" fill="#0E0E10"><path d="M8 6.143h11.5c.276 0 .5.239.5.536v2.143c0 .295-.224.535-.5.535H8v1.607a.537.537 0 01-.309.496.477.477 0 01-.545-.117l-3-3.215a.564.564 0 010-.757l3-3.215a.479.479 0 01.545-.116.537.537 0 01.31.496v1.607zm8.854 6.514l3 3.215a.564.564 0 010 .757l-3 3.214a.475.475 0 01-.545.116.537.537 0 01-.31-.495v-1.607H4.5c-.276 0-.5-.24-.5-.536V15.18c0-.296.224-.536.5-.536H16v-1.607a.54.54 0 01.309-.495.475.475 0 01.545.116z"/></svg>