<?xml version="1.0" encoding="UTF-8"?>
<svg viewBox="0 0 128 128" xmlns="http://www.w3.org/2000/svg">
<path d="m96.631 87.819a8.627 8.627 0 1 0 8.627 8.627 8.627 8.627 0 0 0 -8.627 -8.627z" fill="#3a58a7"/>
<polygon points="34.297 93.703 42.862 102.27 42.862 91.408" fill="#3b58a7"/>
<path d="M59.384,86.981l-4.53,1.213v14.322l-9.639,2.1L68.6,128,80.327,84.215a18.941,18.941,0,0,1-12.87,4.665A17.119,17.119,0,0,1,59.384,86.981Z" fill="#3b58a7"/>
<polygon points="42.862 47.92 0 59.405 34.297 93.703 42.862 61.739" fill="#3b58a7"/>
<polygon points="93.703 34.298 59.405 0 47.091 45.955 50.197 45.955" fill="#3b58a7"/>
<path d="M88,66.806a22.56,22.56,0,0,1-4.244,13.643L128,68.6,93.7,34.3l-6.752,25.2A24.632,24.632,0,0,1,88,66.806Z" fill="#3b58a7"/>
<path d="M54.7,45.955v4.659a16.518,16.518,0,0,1,12.756-5.729A19.045,19.045,0,0,1,82.2,51.3a21.069,21.069,0,0,1,4.753,8.193L93.7,34.3,50.2,45.955Z" fill="#292763"/>
<path d="M54.854,88.194l4.53-1.213a17.538,17.538,0,0,1-4.53-3.447Z" fill="#292763"/>
<polygon points="42.862 61.739 34.297 93.703 42.862 91.408" fill="#292763"/>
<path d="M65.242,55.961a9.871,9.871,0,0,0-7.562,3.207A10.727,10.727,0,0,0,54.7,66.883c0,6.187,4.354,11,10.541,11s10.617-4.812,10.617-11a10.727,10.727,0,0,0-2.979-7.715A9.921,9.921,0,0,0,65.242,55.961Z" fill="#292763"/>
</svg>
