<svg width="560" height="65" viewBox="0 0 560 65" xmlns="http://www.w3.org/2000/svg"><defs><linearGradient x1="75.755%" y1="10.943%" x2="-1.776%" y2="70.606%" id="a"><stop stop-color="#6051F2" offset="0%"/><stop stop-color="#6459F3" offset="24%"/><stop stop-color="#6E6DF5" offset="60%"/><stop stop-color="#7D8CF9" offset="100%"/></linearGradient><linearGradient x1="66.51%" y1="12.824%" x2="-16.648%" y2="87.295%" id="b"><stop stop-color="#6051F2" offset="0%"/><stop stop-color="#6963F4" offset="34%"/><stop stop-color="#7D8CF9" offset="95%"/></linearGradient></defs><g fill="none"><path d="M91.147 48.16l-9.05-16.738h-7.813V48.16H64.64V1.618h19.911c4.522 0 8.151 1.318 10.889 3.955 2.738 2.637 4.11 6.297 4.116 10.978a16.133 16.133 0 01-1.956 8.187 12.702 12.702 0 01-5.511 5.129l9.893 18.293H91.147zm-16.89-25.262h9.112A6.471 6.471 0 0088 21.218a6.116 6.116 0 001.778-4.667A6.284 6.284 0 0088 11.76a6.471 6.471 0 00-4.64-1.68h-9.138l.036 12.818zM110.498 0a5.333 5.333 0 013.893 1.591 5.271 5.271 0 011.582 3.885 5.218 5.218 0 01-1.582 3.83 5.333 5.333 0 01-3.893 1.583 5.182 5.182 0 01-3.831-1.582 5.262 5.262 0 01-1.556-3.831 5.271 5.271 0 011.556-3.858A5.209 5.209 0 01110.497 0zm4.542 48.16h-9.084V16h9.084v32.16zm24.64-32.791a14.738 14.738 0 0111.236 4.604c2.88 3.07 4.32 7.114 4.32 12.134 0 5.019-1.44 9.063-4.32 12.133a14.738 14.738 0 01-11.236 4.649c-3.935 0-6.94-1.156-9.013-3.467V64h-9.094V16h8.587v3.36c1.991-2.66 5.164-3.991 9.52-3.991zm-1.431 7.742a7.191 7.191 0 00-5.502 2.213 8.347 8.347 0 00-2.08 6.036v1.529c-.12 2.2.63 4.358 2.089 6.009a7.929 7.929 0 0011.137-.16c1.431-1.574 2.143-3.778 2.143-6.596s-.712-5.022-2.143-6.595a7.271 7.271 0 00-5.644-2.436zm51.707 11.858h-22.09a6.809 6.809 0 001.912 4.791 6.551 6.551 0 004.818 1.778c3.235 0 5.205-1.185 5.91-3.556l9.147.436a11.644 11.644 0 01-5.004 7.529 16.578 16.578 0 01-9.778 2.924c-4.978 0-8.99-1.514-12.035-4.542-3.046-3.028-4.584-7.102-4.614-12.222 0-5.144 1.514-9.218 4.542-12.223 3.029-3.004 6.97-4.51 11.823-4.515 4.687 0 8.42 1.42 11.2 4.258 2.779 2.838 4.169 6.75 4.169 11.733v3.609zm-15.432-12.507a6.453 6.453 0 00-4.693 1.716 6.907 6.907 0 00-1.964 4.755h12.942a7.111 7.111 0 00-1.707-4.755 5.92 5.92 0 00-4.578-1.716zm61.174-16.8a18.053 18.053 0 016.782 12.32l-3.796.374a14.88 14.88 0 00-5.6-10.205 17.716 17.716 0 00-11.555-3.795c-5.538 0-10.018 1.777-13.44 5.475-3.422 3.698-5.067 8.649-5.067 15.058 0 6.409 1.778 11.449 5.29 15.111a18.053 18.053 0 0013.44 5.413c8.96 0 15.501-4.853 16.995-13.066l3.795.31a18.178 18.178 0 01-6.906 11.787 22 22 0 01-13.76 4.294c-6.596 0-12.01-2.116-16.24-6.347-4.232-4.293-6.347-10.08-6.347-17.484 0-7.405 2.053-13.254 6.222-17.485 4.169-4.23 9.6-6.373 16.178-6.373a21.938 21.938 0 0114.009 4.613zm27.742 10.454a15.627 15.627 0 0111.387 4.444c3.057 2.924 4.542 6.907 4.542 11.822 0 4.916-1.485 8.89-4.542 11.885-6.45 5.887-16.324 5.887-22.774 0-2.986-2.987-4.444-6.97-4.444-11.885s1.493-8.889 4.444-11.822a15.627 15.627 0 0111.387-4.444zm-8.889 6.657c-2.302 2.365-3.484 5.6-3.484 9.645 0 4.044 1.182 7.28 3.484 9.706a12.098 12.098 0 008.889 3.556 11.858 11.858 0 008.836-3.556c2.37-2.43 3.555-5.665 3.555-9.706 0-4.045-1.182-7.28-3.555-9.645-4.965-4.73-12.77-4.73-17.734 0h.01zm75.351-3.111a12.729 12.729 0 013.298 9.085V48.16h-3.484V29.244c0-5.973-3.423-9.893-8.836-9.893a8.622 8.622 0 00-6.791 2.925 10.24 10.24 0 00-2.551 6.968V48.16h-3.556V29.244c0-5.91-3.484-9.893-8.71-9.893a8.888 8.888 0 00-6.845 2.925 10.24 10.24 0 00-2.551 6.968V48.16H286.4V16.676h3.298v5.413c1.493-3.298 5.164-5.973 10.142-5.973a11.067 11.067 0 0110.667 6.844 11.556 11.556 0 0110.96-6.844 10.951 10.951 0 018.435 3.546zm38.569.871c2.925 2.925 4.356 6.845 4.356 11.885s-1.431 9.022-4.356 11.946a14.533 14.533 0 01-10.889 4.356c-5.724 0-9.955-2.613-11.884-6.409V64h-3.476V16.676h3.298v6.097c1.991-3.982 6.347-6.657 12.071-6.657a14.578 14.578 0 0110.88 4.417zM345.698 31.36v2.178c0 7.902 4.666 12.133 11.555 12.133a11.724 11.724 0 008.65-3.484c2.301-2.365 3.421-5.6 3.421-9.707 0-4.107-1.12-7.467-3.422-9.778a11.724 11.724 0 00-8.649-3.484c-6.889.009-11.555 4.24-11.555 12.142zm47.724-15.244a15.627 15.627 0 0111.387 4.444c3.049 2.924 4.542 6.907 4.542 11.822 0 4.916-1.493 8.89-4.542 11.885-6.45 5.887-16.324 5.887-22.773 0-2.987-2.987-4.445-6.97-4.445-11.885s1.493-8.889 4.445-11.822a15.627 15.627 0 0111.386-4.444zm-8.889 6.657c-2.302 2.365-3.484 5.6-3.484 9.645 0 4.044 1.182 7.28 3.484 9.706a12.098 12.098 0 008.89 3.556 11.858 11.858 0 008.835-3.556c2.37-2.43 3.555-5.665 3.555-9.706 0-4.045-1.182-7.28-3.555-9.645-4.97-4.759-12.807-4.759-17.778 0h.053zm54.374-3.111c2.302 2.302 3.422 5.334 3.422 9.147V48.16h-3.485V29.244c0-5.91-3.733-9.893-9.208-9.893a9.431 9.431 0 00-7.032 2.925 9.938 9.938 0 00-2.737 6.968V48.16h-3.485V16.676h3.36v5.333c1.494-3.236 5.334-5.911 10.454-5.911a11.48 11.48 0 018.71 3.564zm39.635 14.062h-25.698c.06 3.675 1.18 6.599 3.36 8.774a11.164 11.164 0 008.152 3.173c5.475 0 9.208-2.489 10.39-6.907l3.485.25c-1.493 5.91-6.595 9.706-13.751 9.706a14.72 14.72 0 01-11.013-4.356c-2.863-2.927-4.294-6.91-4.294-11.946 0-5.04 1.431-9.022 4.231-11.947a14.48 14.48 0 0110.952-4.355c4.444 0 7.902 1.43 10.39 4.23 2.49 2.8 3.796 6.472 3.796 11.138v2.24zM452.844 30.8h22.276c0-6.969-3.858-11.556-10.827-11.556-6.515-.017-11.2 4.276-11.449 11.556zm55.192-11.138c2.302 2.302 3.422 5.334 3.422 9.147V48.16h-3.485V29.244c0-5.91-3.733-9.893-9.209-9.893a9.431 9.431 0 00-7.03 2.925 9.938 9.938 0 00-2.738 6.968V48.16h-3.485V16.676h3.378v5.333c1.493-3.236 5.289-5.911 10.453-5.911a11.484 11.484 0 018.694 3.564zm26.133 25.325v3.173c-1.316.22-2.648.323-3.982.311-5.476 0-8.774-3.049-8.774-9.52l.063-19.227h-5.974v-3.048h5.974l.062-11.138h3.555l-.062 11.138h9.013v3.048h-9.022l-.124 18.605c0 4.667 1.99 6.969 5.973 6.969a27.013 27.013 0 003.298-.311zm24.702-19.974l-3.484.25c-.498-3.796-3.111-6.099-7.591-6.036-4.792-.063-7.352 2.106-7.352 5.786.017.84.208 1.666.56 2.427a6.053 6.053 0 001.68 1.431c.498.249 2.116.685 2.667.889l1.618.373 1.778.374c3.857.936 6.657 1.994 8.4 3.173 1.777 1.182 2.613 3.111 2.613 5.724 0 5.974-4.444 9.334-11.449 9.334-6.72 0-11.2-3.236-12.009-8.96l3.485-.25c.684 4.045 3.795 6.16 8.586 6.16s7.903-2.052 7.903-6.035c0-1.866-.623-3.173-1.867-3.92-1.245-.809-3.609-1.555-7.111-2.364-1.245-.311-2.054-.498-2.49-.56l-2.052-.622a15.948 15.948 0 01-2.054-.747c-.684-.436-2.302-1.369-2.8-2.302a9.938 9.938 0 01-.889-4.045c0-5.475 3.983-8.96 10.951-8.889 6.365-.088 10.16 3.352 10.907 8.81z" fill="#273344"/><path fill="url(#a)" opacity=".7" d="M32.969 1.511l-6.222 10.711-6.223-10.666H0l26.782 46.337L53.564 1.511z"/><path fill="url(#b)" d="M32.969 1.511l-6.222 10.711-6.223-10.666h-9.813l16.071 27.777L42.853 1.511z"/></g></svg>