<svg width="1440" height="898" xmlns="http://www.w3.org/2000/svg"><defs><linearGradient x1="-82.546%" y1="145.534%" x2="146.146%" y2="-37.602%" id="a"><stop stop-color="#6051F2" offset="0%"/><stop stop-color="#6459F3" offset="24%"/><stop stop-color="#6E6DF5" offset="60%"/><stop stop-color="#7D8CF9" offset="100%"/></linearGradient><linearGradient x1="-82.546%" y1="145.614%" x2="146.146%" y2="-37.675%" id="b"><stop stop-color="#6051F2" offset="0%"/><stop stop-color="#6459F3" offset="24%"/><stop stop-color="#6E6DF5" offset="60%"/><stop stop-color="#7D8CF9" offset="100%"/></linearGradient><linearGradient x1="-82.546%" y1="140.801%" x2="146.146%" y2="-33.262%" id="c"><stop stop-color="#6051F2" offset="0%"/><stop stop-color="#6459F3" offset="24%"/><stop stop-color="#6E6DF5" offset="60%"/><stop stop-color="#7D8CF9" offset="100%"/></linearGradient></defs><g fill="none"><path d="M485.12 1272.812H355.94a23.357 23.357 0 00-15.117 5.971l-199.25 175.214c-10.65 9.93-11.9 26.369-2.873 37.794l416.415 509.086a23.584 23.584 0 0017.839 8.92h.831a23.735 23.735 0 0017.915-8.92l416.263-508.784c9.027-11.425 7.778-27.865-2.872-37.794l-199.1-175.516a23.206 23.206 0 00-15.117-5.971H485.12z" fill="url(#a)" transform="rotate(-136 312.107 1345.561)"/><path d="M697.878 157.856h-116.4a21.041 21.041 0 00-13.622 5.383L388.317 321.184c-9.596 8.951-10.722 23.77-2.588 34.07l375.219 458.913a21.247 21.247 0 0016.074 8.04h.75a21.384 21.384 0 0016.141-8.04l375.083-458.641c8.134-10.299 7.008-25.118-2.588-34.07L987.006 163.24a20.905 20.905 0 00-13.622-5.383H697.878z" fill="url(#b)" transform="rotate(69 1157.453 -32.23)"/><path d="M1638.457 1315.819h-70.692a12.964 12.964 0 00-8.273 3.186l-109.037 93.478c-5.827 5.297-6.511 14.068-1.571 20.163l227.877 271.602c2.372 2.915 5.946 4.658 9.762 4.758h.455c3.827-.1 7.414-1.84 9.803-4.758l227.794-271.44c4.94-6.096 4.256-14.867-1.572-20.164l-108.954-93.64a12.88 12.88 0 00-8.273-3.185h-167.319z" fill="url(#c)" transform="rotate(12 4847.075 8.143)"/></g></svg>