<svg width="373" height="120" xmlns="http://www.w3.org/2000/svg"><defs><linearGradient x1="-82.484%" y1="145.253%" x2="146.121%" y2="-37.317%" id="a"><stop stop-color="#6051F2" offset="0%"/><stop stop-color="#6459F3" offset="24%"/><stop stop-color="#6E6DF5" offset="60%"/><stop stop-color="#7D8CF9" offset="100%"/></linearGradient><linearGradient x1="17.5%" y1="81.425%" x2="70.5%" y2="31.544%" id="b"><stop stop-color="#3A3AA0" offset="0%"/><stop stop-color="#4447AE" offset="22%"/><stop stop-color="#5F68D2" offset="62%"/><stop stop-color="#7D8CF9" offset="100%"/></linearGradient><linearGradient x1="20.704%" y1="103.636%" x2="71.841%" y2="-2.344%" id="c"><stop stop-color="#7A89F9" offset="0%"/><stop stop-color="#8190F9" offset="26%"/><stop stop-color="#93A3FB" offset="63%"/><stop stop-color="#A9BBFC" offset="97%"/></linearGradient></defs><g fill="none"><path d="M25.125 0h-8.882a1.62 1.62 0 0 0-1.064.413L1.504 12.455a1.913 1.913 0 0 0-.202 2.636L29.9 50.015a1.61 1.61 0 0 0 1.23.615h.054a1.61 1.61 0 0 0 1.23-.615l28.653-34.942c.645-.79.56-1.947-.194-2.635L47.19.422A1.593 1.593 0 0 0 46.135 0h-21.01z" fill="url(#a)" transform="translate(0 32)"/><path d="M31.255 50.586a.59.59 0 0 1-.519-.36" fill="url(#b)" transform="translate(0 32)"/><path d="M46.109 15.178l-14.37 35.039a.59.59 0 0 1-1.09 0l-14.38-35.074a2.957 2.957 0 0 1 .29-2.81L25.135 0h11.732l8.917 12.297a3 3 0 0 1 .326 2.881z" fill="url(#c)" transform="translate(0 32)"/><path d="M101.355 80.636l-8.953-16.531h-7.721v16.53h-9.542v-46h19.69c4.468 0 8.065 1.3 10.764 3.9 2.7 2.6 4.063 6.22 4.063 10.848a15.866 15.866 0 0 1-1.934 8.081 12.517 12.517 0 0 1-5.453 5.068l9.788 18.069-10.702.035zm-16.736-24.92h9.04a6.38 6.38 0 0 0 4.582-1.66 6.048 6.048 0 0 0 1.76-4.611 6.215 6.215 0 0 0-1.76-4.735 6.416 6.416 0 0 0-4.581-1.651h-9.041v12.657zm35.863-22.644a5.227 5.227 0 0 1 3.843 1.563 5.214 5.214 0 0 1 1.575 3.839 5.144 5.144 0 0 1-1.575 3.777 5.227 5.227 0 0 1-3.843 1.58 5.148 5.148 0 0 1-3.816-1.572 5.214 5.214 0 0 1-1.54-3.777 5.267 5.267 0 0 1 1.601-3.847 5.174 5.174 0 0 1 3.755-1.563zm4.494 47.564h-8.988V48.865h8.988v31.77zm24.36-32.386a14.555 14.555 0 0 1 11.108 4.55c2.85 3.027 4.274 7.021 4.274 11.981s-1.425 8.965-4.274 12.016a14.52 14.52 0 0 1-11.108 4.55c-3.898 0-6.87-1.127-8.917-3.381v18.34h-8.988V48.874h8.496v3.329c1.97-2.63 5.106-3.947 9.41-3.953zm-1.415 7.686a7.154 7.154 0 0 0-5.453 2.178 8.303 8.303 0 0 0-2.058 5.93v1.475a8.277 8.277 0 0 0 2.058 5.929 7.842 7.842 0 0 0 11.02-.15c1.406-1.554 2.119-3.732 2.119-6.517 0-2.784-.713-4.954-2.12-6.509a7.154 7.154 0 0 0-5.566-2.336zm52.361 11.674h-21.845a6.768 6.768 0 0 0 1.847 4.734 6.53 6.53 0 0 0 4.766 1.757c3.201 0 5.145-1.169 5.848-3.514l9.041.43a11.489 11.489 0 0 1-4.951 7.432 16.327 16.327 0 0 1-9.674 2.89c-4.925 0-8.894-1.497-11.907-4.489-3.014-2.992-4.52-7.007-4.52-12.043 0-5.077 1.497-9.102 4.493-12.077 2.996-2.975 6.892-4.46 11.688-4.454 4.631 0 8.322 1.406 11.072 4.217 2.75 2.81 4.124 6.67 4.124 11.577l.018 3.54zm-15.258-12.35a6.416 6.416 0 0 0-4.644 1.686 6.856 6.856 0 0 0-1.943 4.7h12.804a7.145 7.145 0 0 0-1.697-4.7 5.87 5.87 0 0 0-4.52-1.687zm68.974 25.376h-3.078l-13.658-39.264-13.605 39.264h-3.069l-16.12-46h3.958l13.727 39.702 13.632-39.703h3.016l13.658 39.703 13.719-39.703h3.878zm25.662-47.758v21.767c1.477-3.136 5.223-5.657 10.21-5.657a11.37 11.37 0 0 1 8.618 3.513c2.27 2.275 3.377 5.27 3.377 9.03v19.105h-3.438V61.953c0-5.833-3.694-9.768-9.111-9.768a9.31 9.31 0 0 0-6.948 2.89 9.805 9.805 0 0 0-2.708 6.878v18.683h-3.448V32.878h3.448zm35.485 6.65a2.526 2.526 0 0 1-3.49-.08 2.519 2.519 0 0 1-.072-3.487c2.093-2.582 6.147 1.476 3.562 3.567zm-.053 41.108h-3.447V49.568h3.447v31.068zM338.96 77.5v3.136c-1.302.216-2.62.32-3.94.307-5.417 0-8.671-3.013-8.671-9.398l.061-18.99h-5.91v-2.987h5.91l.062-10.998h3.518l-.08 10.998h8.927v2.986h-8.927l-.123 18.376c0 4.611 1.97 6.877 5.91 6.877a26.757 26.757 0 0 0 3.263-.307zm32.61-11.12h-25.417c.065 3.63 1.173 6.52 3.325 8.67a11.08 11.08 0 0 0 8.064 3.126c5.409 0 9.102-2.46 10.272-6.816l3.447.246c-1.477 5.833-6.525 9.583-13.596 9.583a14.573 14.573 0 0 1-10.896-4.304c-2.82-2.88-4.233-6.813-4.239-11.796 0-4.972 1.416-8.907 4.178-11.797a14.335 14.335 0 0 1 10.834-4.304c4.397 0 7.81 1.414 10.272 4.18 2.462 2.768 3.755 6.396 3.755 10.998v2.214zm-25.417-2.89h22.03c0-6.878-3.816-11.42-10.702-11.42-6.464-.008-11.081 4.235-11.328 11.42z" fill="#22283F"/></g></svg>