<svg xmlns="http://www.w3.org/2000/svg" xmlns:xlink="http://www.w3.org/1999/xlink" width="12" height="12" viewBox="0 0 12 12"><defs><path id="a" d="M6.586 3.415a1.998 1.998 0 012.828 0l3.172 3.171a1.998 1.998 0 010 2.829l-3.172 3.17a1.998 1.998 0 01-2.828 0l-3.172-3.17a1.998 1.998 0 010-2.829zM8 10l-.098.007a.667.667 0 00-.569.66l.008.098a.667.667 0 00.659.568l.098-.007a.667.667 0 00.569-.66l-.008-.098A.667.667 0 008 10zm0-5.333l-.098.007a.667.667 0 00-.569.66v3.333c0 .368.299.666.667.666l.098-.007a.667.667 0 00.569-.66V5.334A.667.667 0 008 4.667z"/></defs><g fill="none" fill-rule="evenodd" transform="translate(-2 -2)"><path d="M0 0h16v16H0z"/><mask id="b" fill="#fff"><use xlink:href="#a"/></mask><use fill="#42526E" xlink:href="#a"/><path fill="#E96760" d="M0 0h16v16H0z" mask="url(#b)"/></g></svg>