<svg xmlns="http://www.w3.org/2000/svg" xmlns:xlink="http://www.w3.org/1999/xlink" width="16" height="16"><defs><path id="a" d="M13.742 7.48V3.1c0-.048 0-.096-.024-.144 0-.024 0-.048-.024-.048 0-.024-.024-.048-.024-.071 0-.024-.023-.048-.047-.072 0-.024-.024-.048-.024-.048a.728.728 0 00-.192-.192l-.048-.024c-.048-.071-.095-.095-.143-.095l-.072-.024c-.048 0-.096-.024-.144-.024H8.62a.705.705 0 00-.718.718c0 .407.311.718.718.718h2.657l-8.704 8.728c-.287.287-.287.742 0 1.005.287.287.742.287 1.006 0l8.727-8.704V7.48c0 .407.311.718.718.718.383 0 .694-.335.718-.718z"/></defs><g fill="none" fill-rule="evenodd" transform="rotate(45 8.05 8.05)"><mask id="b" fill="#fff"><use xlink:href="#a"/></mask><g fill="#0D0D0D" mask="url(#b)"><path d="M0 0h16v16H0z"/></g></g></svg>