<svg xmlns="http://www.w3.org/2000/svg" xmlns:xlink="http://www.w3.org/1999/xlink" width="30" height="30" viewBox="0 0 30 30"><defs><path id="a" d="M22.5 20a2.5 2.5 0 110 5 2.5 2.5 0 010-5zM15 20a2.5 2.5 0 110 5 2.5 2.5 0 010-5zm-7.5 0a2.5 2.5 0 110 5 2.5 2.5 0 010-5zm15-7.5a2.5 2.5 0 110 5 2.5 2.5 0 010-5zm-7.5 0a2.5 2.5 0 110 5 2.5 2.5 0 010-5zm-7.5 0a2.5 2.5 0 110 5 2.5 2.5 0 010-5zm15-7.5a2.5 2.5 0 110 5 2.5 2.5 0 010-5zM15 5a2.5 2.5 0 110 5 2.5 2.5 0 010-5zM7.5 5a2.5 2.5 0 110 5 2.5 2.5 0 010-5z"/></defs><g fill="none" fill-rule="evenodd"><path d="M0 0h30v30H0z"/><mask id="b" fill="#fff"><use xlink:href="#a"/></mask><use fill="#000" xlink:href="#a"/><path fill="#1D2631" fill-rule="nonzero" d="M0 0h30v30H0z" mask="url(#b)"/></g></svg>