<svg width="120" height="120" xmlns="http://www.w3.org/2000/svg"><defs><linearGradient x1="48.747%" y1="48.771%" x2="49.746%" y2="48.806%" id="a"><stop stop-color="#6051F2" offset="0%"/><stop stop-color="#645AF3" offset="10%"/><stop stop-color="#7275F6" offset="45%"/><stop stop-color="#7A86F8" offset="76%"/><stop stop-color="#7D8CF9" offset="100%"/></linearGradient><linearGradient x1="-2.599%" y1="8.103%" x2="106.777%" y2="95.149%" id="b"><stop stop-color="#6051F2" offset="0%"/><stop stop-color="#6963F4" offset="34%"/><stop stop-color="#7D8CF9" offset="95%"/></linearGradient></defs><g fill="none"><path fill="url(#a)" opacity=".47" d="m110.508 117.108-.02-.02.02.02z"/><path d="M62.356 2.182A58.91 58.91 0 0 0 2.182 62.356C2.858 94.626 30.044 120 62.312 120h54.066a3.687 3.687 0 0 0 3.622-3.622V62.313c0-32.27-25.375-59.455-57.644-60.131zM32.313 64.909a29.062 29.062 0 1 1 25.025 25.026c-13.045-1.716-23.31-11.98-25.025-25.026z" fill="url(#b)"/></g></svg>