<svg width="120" height="120" xmlns="http://www.w3.org/2000/svg"><defs><linearGradient x1="48.747%" y1="48.771%" x2="49.746%" y2="48.806%" id="a"><stop stop-color="#6051F2" offset="0%"/><stop stop-color="#645AF3" offset="10%"/><stop stop-color="#7275F6" offset="45%"/><stop stop-color="#7A86F8" offset="76%"/><stop stop-color="#7D8CF9" offset="100%"/></linearGradient><linearGradient x1="17.917%" y1="-66.258%" x2="63.812%" y2="100.88%" id="b"><stop stop-color="#6051F2" offset="0%"/><stop stop-color="#645AF3" offset="10%"/><stop stop-color="#7275F6" offset="45%"/><stop stop-color="#7A86F8" offset="76%"/><stop stop-color="#7D8CF9" offset="100%"/></linearGradient><linearGradient x1="-19.801%" y1="106.339%" x2="92.979%" y2="15.364%" id="c"><stop stop-color="#6051F2" offset="0%"/><stop stop-color="#6459F3" offset="24%"/><stop stop-color="#6E6DF5" offset="60%"/><stop stop-color="#7D8CF9" offset="100%"/></linearGradient><linearGradient x1="-23.44%" y1="49.917%" x2="143.347%" y2="49.917%" id="d"><stop stop-color="#6051F2" offset="0%"/><stop stop-color="#6963F4" offset="34%"/><stop stop-color="#7D8CF9" offset="95%"/></linearGradient></defs><g fill="none"><path fill="url(#a)" opacity=".47" d="m110.508 117.108-.02-.02.02.02z"/><path d="M118.324 52.531 94.8 7.738a2.524 2.524 0 0 0-4.366 0L65.297 51.434a4.8 4.8 0 0 0 0 4.718l25.137 43.696a2.524 2.524 0 0 0 4.366 0l23.524-42.62a4.759 4.759 0 0 0 0-4.697z" fill="url(#b)" opacity=".47" transform="translate(0 6)"/><path d="m.331 61.697 25.035 43.448a4.738 4.738 0 0 0 4.137 2.359h50.131a2.525 2.525 0 0 0 2.194-3.766L56.793 60.29a4.718 4.718 0 0 0-4.138-2.36H2.525A2.525 2.525 0 0 0 .33 61.698z" fill="url(#c)" opacity=".7" transform="translate(0 6)"/><path d="M56.441 47.317 81.89 3.87A2.524 2.524 0 0 0 79.82.082H29.546a4.698 4.698 0 0 0-4.138 2.36L.352 45.89a2.503 2.503 0 0 0 2.172 3.765h49.842a4.717 4.717 0 0 0 4.075-2.338z" fill="url(#d)" transform="translate(0 6)"/></g></svg>