<svg width="120" height="120" viewBox="0 0 120 120" xmlns="http://www.w3.org/2000/svg"><defs><linearGradient x1="48.747%" y1="48.771%" x2="49.746%" y2="48.806%" id="a"><stop stop-color="#6051F2" offset="0%"/><stop stop-color="#645AF3" offset="10%"/><stop stop-color="#7275F6" offset="45%"/><stop stop-color="#7A86F8" offset="76%"/><stop stop-color="#7D8CF9" offset="100%"/></linearGradient><linearGradient x1="-91.648%" y1="-9.277%" x2="82.558%" y2="65.549%" id="b"><stop stop-color="#6051F2" offset="0%"/><stop stop-color="#6459F3" offset="24%"/><stop stop-color="#6E6DF5" offset="60%"/><stop stop-color="#7D8CF9" offset="100%"/></linearGradient><linearGradient x1="40.536%" y1="10.253%" x2="80.057%" y2="130.358%" id="c"><stop stop-color="#6051F2" offset="0%"/><stop stop-color="#6963F4" offset="34%"/><stop stop-color="#7D8CF9" offset="95%"/></linearGradient><linearGradient x1="185.304%" y1="-89.278%" x2="360.276%" y2="-87.914%" id="d"><stop stop-color="#6051F2" offset="0%"/><stop stop-color="#645AF3" offset="10%"/><stop stop-color="#7275F6" offset="45%"/><stop stop-color="#7A86F8" offset="76%"/><stop stop-color="#7D8CF9" offset="100%"/></linearGradient></defs><g fill="none"><path fill="url(#a)" opacity=".47" d="M110.508 117.108l-.02-.02.02.02z"/><path d="M31.57 30.172l-3.787-1.498C16.724 56.902 30.64 88.75 58.867 99.812l51.11 20.007-10.752-24.644A122.634 122.634 0 0031.57 30.173z" fill="url(#b)" opacity=".7" transform="translate(3)"/><path d="M85.88 3.18L83.308 0c-23.558 19.085-27.185 53.655-8.1 77.213l34.628 42.525 2.855-26.588a122.675 122.675 0 00-26.81-89.97z" fill="url(#c)" transform="translate(3)"/><path d="M58.867 99.812a54.796 54.796 0 01-31.55-32.4A121.804 121.804 0 004.05 65.306H0a54.878 54.878 0 0055.1 54.676l54.857-.203-51.09-19.967z" fill="url(#d)" opacity=".47" transform="translate(3)"/></g></svg>