<svg width="120" height="120" xmlns="http://www.w3.org/2000/svg"><defs><linearGradient x1="48.747%" y1="48.771%" x2="49.746%" y2="48.806%" id="a"><stop stop-color="#6051F2" offset="0%"/><stop stop-color="#645AF3" offset="10%"/><stop stop-color="#7275F6" offset="45%"/><stop stop-color="#7A86F8" offset="76%"/><stop stop-color="#7D8CF9" offset="100%"/></linearGradient><linearGradient x1="-82.484%" y1="145.482%" x2="146.121%" y2="-37.527%" id="b"><stop stop-color="#6051F2" offset="0%"/><stop stop-color="#6459F3" offset="24%"/><stop stop-color="#6E6DF5" offset="60%"/><stop stop-color="#7D8CF9" offset="100%"/></linearGradient><linearGradient x1="20.774%" y1="103.636%" x2="71.789%" y2="-2.344%" id="c"><stop stop-color="#7A89F9" offset="0%"/><stop stop-color="#8190F9" offset="26%"/><stop stop-color="#93A3FB" offset="63%"/><stop stop-color="#A9BBFC" offset="97%"/></linearGradient></defs><g fill="none"><path fill="url(#a)" opacity=".47" d="M110.508 117.108l-.02-.02.02.02z"/><path d="M48.977 0H31.663a3.154 3.154 0 00-2.074.806L2.93 24.309a3.737 3.737 0 00-.394 5.142l55.749 68.16c.58.74 1.46 1.18 2.4 1.2h.103c.939-.02 1.82-.46 2.4-1.2l55.851-68.194a3.754 3.754 0 00-.377-5.143L91.989.823A3.103 3.103 0 0089.93 0H48.977z" fill="url(#b)" transform="translate(0 12)"/><path d="M89.88 29.623L61.869 98.006a1.149 1.149 0 01-2.126 0L31.714 29.554a5.777 5.777 0 01.566-5.485L48.994 0h22.869l17.383 24a5.863 5.863 0 01.634 5.623z" fill="url(#c)" transform="translate(0 12)"/></g></svg>