<svg viewBox="0 0 128 128" xmlns="http://www.w3.org/2000/svg"><path d="M96.631 87.819a8.627 8.627 0 108.627 8.627 8.627 8.627 0 00-8.627-8.627z" fill="#3a58a7"/><path fill="#3b58a7" d="M34.297 93.703l8.565 8.567V91.408zm25.087-6.722l-4.53 1.213v14.322l-9.639 2.1L68.6 128l11.727-43.785a18.941 18.941 0 01-12.87 4.665 17.119 17.119 0 01-8.073-1.899zM42.862 47.92L0 59.405l34.297 34.298 8.565-31.964zm50.841-13.622L59.405 0 47.091 45.955h3.106zM88 66.806a22.56 22.56 0 01-4.244 13.643L128 68.6 93.7 34.3l-6.752 25.2A24.632 24.632 0 0188 66.806z"/><path d="M54.7 45.955v4.659a16.518 16.518 0 0112.756-5.729A19.045 19.045 0 0182.2 51.3a21.069 21.069 0 014.753 8.193L93.7 34.3 50.2 45.955zm.154 42.239l4.53-1.213a17.538 17.538 0 01-4.53-3.447zM42.862 61.739l-8.565 31.964 8.565-2.295zm22.38-5.778a9.871 9.871 0 00-7.562 3.207 10.727 10.727 0 00-2.98 7.715c0 6.187 4.354 11 10.541 11s10.617-4.812 10.617-11a10.727 10.727 0 00-2.979-7.715 9.921 9.921 0 00-7.637-3.207z" fill="#292763"/></svg>