<?xml version="1.0" encoding="UTF-8"?>
<svg viewBox="0 0 58 80" xmlns="http://www.w3.org/2000/svg" xmlns:xlink="http://www.w3.org/1999/xlink">
<defs>
<path id="d" d="M0 .188h57.845v79.098H0z"/>
</defs>
<g fill="none" fill-rule="evenodd">
<mask id="c" fill="#fff">
<use xlink:href="#d"/>
</mask>
<path d="M22.496.188H2.836C1.27.188 0 1.608 0 3.36v1.18c0 1.715 1.228 3.14 2.758 3.142h.029c16.11 0 28.132 9.489 30.063 34.426.12 1.55-.913 2.913-2.296 3.068l-4.514.502c-.36.04-.627.388-.618.793.318 15.203-8.073 24.8-22.635 24.8h-.21C1.147 71.285 0 72.608 0 74.207v2.146c0 1.62 1.174 2.933 2.621 2.933h19.875c19.523 0 35.35-17.707 35.35-39.55 0-21.842-15.827-39.548-35.35-39.548" fill="#FFF" mask="url(#c)"/>
<path d="m13.464 24.21c0 2.907-2.318 5.264-5.178 5.264s-5.179-2.357-5.179-5.263c0-2.907 2.319-5.264 5.179-5.264s5.178 2.357 5.178 5.264m-4.83 38.947h-0.697c-2.667 0-4.83-2.048-4.83-4.574v-17.167c0-2.527 2.163-4.575 4.83-4.575h0.697c2.668 0 4.83 2.048 4.83 4.575v17.167c0 2.526-2.162 4.574-4.83 4.574" fill="#FFF"/>
</g>
</svg>
