<svg width="373" height="63" viewBox="0 0 373 63" xmlns="http://www.w3.org/2000/svg"><defs><linearGradient x1="-82.484%" y1="139.651%" x2="146.121%" y2="-32.182%" id="a"><stop stop-color="#6051F2" offset="0%"/><stop stop-color="#6459F3" offset="24%"/><stop stop-color="#6E6DF5" offset="60%"/><stop stop-color="#7D8CF9" offset="100%"/></linearGradient><linearGradient x1="17.5%" y1="79.576%" x2="70.5%" y2="32.63%" id="b"><stop stop-color="#3A3AA0" offset="0%"/><stop stop-color="#4447AE" offset="22%"/><stop stop-color="#5F68D2" offset="62%"/><stop stop-color="#7D8CF9" offset="100%"/></linearGradient><linearGradient x1="18.873%" y1="103.636%" x2="73.206%" y2="-2.344%" id="c"><stop stop-color="#7A89F9" offset="0%"/><stop stop-color="#8190F9" offset="26%"/><stop stop-color="#93A3FB" offset="63%"/><stop stop-color="#A9BBFC" offset="97%"/></linearGradient></defs><g fill-rule="nonzero" fill="none"><path d="M25.125 0h-8.882a1.647 1.647 0 00-1.064.4L1.504 12.085a1.817 1.817 0 00-.202 2.556L29.9 48.522c.297.367.749.586 1.23.596h.054c.482-.01.933-.229 1.23-.596l28.653-33.899a1.825 1.825 0 00-.194-2.556L47.19.409A1.62 1.62 0 0046.135 0h-21.01z" fill="url(#a)"/><path d="M31.255 49.076a.589.589 0 01-.519-.35" fill="url(#b)"/><path d="M46.109 14.725l-14.37 33.993a.59.59 0 01-.546.354.59.59 0 01-.545-.354L16.27 14.69a2.796 2.796 0 01.29-2.727L25.134 0h11.732l8.917 11.93c.596.816.72 1.871.326 2.795z" fill="url(#c)"/><path d="M101.355 47.184l-8.953-16.038h-7.721v16.038h-9.542V2.556h19.69c4.468 0 8.065 1.262 10.764 3.784 2.7 2.522 4.063 6.033 4.063 10.524a15.023 15.023 0 01-1.934 7.84 12.377 12.377 0 01-5.453 4.917l9.788 17.529-10.702.034zM84.619 23.008h9.04a6.498 6.498 0 004.582-1.61 5.772 5.772 0 001.76-4.474 5.928 5.928 0 00-1.76-4.593 6.535 6.535 0 00-4.581-1.602h-9.041v12.28zM120.482 1.04a5.311 5.311 0 013.843 1.516A4.983 4.983 0 01125.9 6.28a4.918 4.918 0 01-1.575 3.665 5.31 5.31 0 01-3.843 1.534 5.229 5.229 0 01-3.816-1.526 4.982 4.982 0 01-1.54-3.664 5.035 5.035 0 011.601-3.733 5.255 5.255 0 013.755-1.516zm4.494 46.144h-8.988V16.361h8.988v30.823zM149.336 15.765c4.186-.147 8.234 1.462 11.108 4.414 2.85 2.937 4.274 6.812 4.274 11.624 0 4.811-1.425 8.697-4.274 11.657-2.872 2.956-6.921 4.565-11.108 4.414-3.898 0-6.87-1.093-8.917-3.28v17.792h-8.988V16.37h8.496v3.23c1.97-2.551 5.106-3.83 9.41-3.835zm-1.415 7.456a7.271 7.271 0 00-5.453 2.114 7.908 7.908 0 00-2.058 5.752v1.431a7.883 7.883 0 002.058 5.752c3.094 2.886 8.008 2.821 11.02-.144 1.406-1.509 2.119-3.622 2.119-6.323 0-2.702-.713-4.807-2.12-6.315-1.419-1.515-3.456-2.345-5.566-2.267zM200.282 34.546h-21.845a6.46 6.46 0 001.847 4.594 6.648 6.648 0 004.766 1.704c3.201 0 5.145-1.133 5.848-3.409l9.041.418c-.58 2.951-2.365 5.55-4.951 7.21a16.688 16.688 0 01-9.674 2.803c-4.925 0-8.894-1.452-11.907-4.355-3.014-2.903-4.52-6.797-4.52-11.683 0-4.925 1.497-8.831 4.493-11.717 2.996-2.886 6.892-4.326 11.688-4.32 4.631 0 8.322 1.363 11.072 4.09s4.124 6.47 4.124 11.231l.018 3.434zm-15.258-11.98a6.534 6.534 0 00-4.644 1.635 6.551 6.551 0 00-1.943 4.56h12.804a6.808 6.808 0 00-1.697-4.56 5.973 5.973 0 00-4.52-1.636zM253.998 47.184h-3.078L237.262 9.093l-13.605 38.091h-3.069l-16.12-44.628h3.958l13.727 38.518 13.632-38.518h3.016l13.658 38.518 13.719-38.518h3.878zM279.66.852V21.97c1.477-3.043 5.223-5.488 10.21-5.488 3.243-.109 6.38 1.132 8.618 3.408 2.27 2.207 3.377 5.113 3.377 8.76v18.535h-3.438V29.059c0-5.659-3.694-9.476-9.111-9.476-2.62-.056-5.143.962-6.948 2.803a9.36 9.36 0 00-2.708 6.673v18.125h-3.448V.852h3.448zM315.145 7.303a2.583 2.583 0 01-3.49-.077 2.391 2.391 0 01-.072-3.383c2.093-2.505 6.147 1.432 3.562 3.46zm-.053 39.881h-3.447v-30.14h3.447v30.14zM338.96 44.142v3.042c-1.302.21-2.62.31-3.94.298-5.417 0-8.671-2.923-8.671-9.118l.061-18.423h-5.91v-2.898h5.91l.062-10.669h3.518l-.08 10.67h8.927v2.897h-8.927l-.123 17.827c0 4.473 1.97 6.672 5.91 6.672a27.557 27.557 0 003.263-.298zM371.57 33.353h-25.417c.065 3.523 1.173 6.326 3.325 8.411 2.152 2.03 5.063 3.124 8.064 3.034 5.409 0 9.102-2.386 10.272-6.613l3.447.239c-1.477 5.658-6.525 9.297-13.596 9.297-4.075.148-8.027-1.367-10.896-4.176-2.82-2.795-4.233-6.61-4.239-11.444 0-4.823 1.416-8.641 4.178-11.445 2.837-2.817 6.775-4.335 10.834-4.175 4.397 0 7.81 1.372 10.272 4.056 2.462 2.684 3.755 6.204 3.755 10.669v2.147zm-25.417-2.803h22.03c0-6.673-3.816-11.078-10.702-11.078-6.464-.009-11.081 4.107-11.328 11.078z" fill="#22283F"/></g></svg>