<svg viewBox="0 0 117 48" xmlns="http://www.w3.org/2000/svg"><defs><linearGradient id="a" x2="102%" y1="43.473%" y2="56.658%"><stop stop-color="#3023AE" offset="0"/><stop stop-color="#C86DD7" offset="1"/></linearGradient></defs><g fill="none" fill-rule="evenodd"><g fill="gray"><path d="M20.787 0l.846 1.49h5.093V0zM21.678 5.367h4.751V3.876h-4.751zM26.726 8.348H21.62l-.833 1.49h5.94zM1.72 4.48h2.823c.55 0 .968-.133 1.253-.394.284-.262.426-.655.426-1.178 0-.312-.046-.567-.137-.765s-.218-.351-.378-.461c-.161-.11-.345-.184-.552-.22s-.42-.056-.64-.056H1.722v3.073zM0 0h4.694C5.777 0 6.59.234 7.131.704c.542.468.812 1.12.812 1.955 0 .47-.069.858-.206 1.165a2.543 2.543 0 01-.482.745 1.881 1.881 0 01-.543.406c-.18.082-.31.138-.393.165v.028c.146.018.305.064.475.137.17.074.328.191.474.352.147.16.27.37.366.627.096.257.144.578.144.964 0 .58.044 1.105.13 1.577.088.474.224.812.407 1.013H6.47a1.604 1.604 0 01-.227-.702 8.475 8.475 0 01-.034-.744c0-.45-.028-.838-.083-1.165a2.028 2.028 0 00-.302-.812 1.282 1.282 0 00-.6-.476c-.252-.101-.576-.152-.97-.152H1.72v4.051H0V0zM9.502 9.838h1.782V0H9.502zM14.796 4.658h2.532c.194 0 .393-.028.595-.083.203-.055.39-.144.56-.268.17-.125.31-.29.415-.496.107-.207.16-.467.16-.779 0-.321-.046-.588-.138-.8a1.276 1.276 0 00-.374-.502 1.33 1.33 0 00-.54-.255 2.921 2.921 0 00-.65-.07h-2.56v3.253zM13.066 0h4.359c.7 0 1.273.102 1.716.303.443.202.783.455 1.024.76.24.302.403.632.49.99.089.359.132.69.132.993a4.1 4.1 0 01-.131.984 2.565 2.565 0 01-.491.986c-.24.304-.581.554-1.024.75-.443.199-1.015.297-1.716.297h-2.629v3.775h-1.73V0z"/></g><path d="M0 47.871V14.944h6.334v3.109h.094c1.595-2.59 4.223-3.768 7.225-3.768 7.601 0 11.026 6.17 11.026 13.095 0 6.5-3.565 12.577-10.65 12.577-2.91 0-5.678-1.272-7.273-3.675h-.094V47.87H0zm12.246-12.954c4.363 0 5.771-3.768 5.771-7.725 0-3.863-1.548-7.867-5.818-7.867-4.363 0-5.77 3.91-5.77 7.867s1.5 7.725 5.817 7.725zm39.177-19.973v24.354h-6.334v-3.392h-.14c-1.69 2.733-4.599 4.052-7.414 4.052-7.085 0-8.868-4.004-8.868-10.033v-14.98h6.663V28.7c0 4.004 1.173 5.982 4.27 5.982 3.612 0 5.16-2.026 5.16-6.972V14.944h6.663zm5.255 24.354V5.665h6.662v33.633h-6.662zm10.744-7.914h6.334c.047 2.92 2.487 4.099 5.114 4.099 1.924 0 4.363-.754 4.363-3.11 0-2.025-2.768-2.732-7.554-3.768-3.847-.848-7.694-2.214-7.694-6.5 0-6.218 5.348-7.82 10.557-7.82 5.302 0 10.18 1.79 10.697 7.772h-6.334c-.188-2.59-2.159-3.297-4.551-3.297-1.502 0-3.707.283-3.707 2.261 0 2.402 3.754 2.732 7.554 3.627 3.894.895 7.695 2.308 7.695 6.83 0 6.407-5.537 8.48-11.073 8.48-5.63 0-11.12-2.12-11.401-8.574zm49.359-2.638H99.28c.188 4.24 2.252 6.171 5.959 6.171 2.674 0 4.832-1.649 5.254-3.156h5.865c-1.877 5.747-5.865 8.197-11.354 8.197-7.648 0-12.387-5.276-12.387-12.813 0-7.302 5.02-12.86 12.387-12.86 8.258 0 12.246 6.971 11.777 14.46zm-17.501-4.24h10.838c-.61-3.39-2.065-5.18-5.302-5.18-4.223 0-5.443 3.297-5.536 5.18z" fill="url(#a)"/></g></svg>